# xmcd CD database file
#
# Track frame offsets:
#	150
#	18750
#	34555
#	61670
#	75207
#	102165
#	127667
#	140302
#	161715
#	174535
#	197495
#	215335
#	236122
#	262812
#	276070
#
# Disc length: 3965 seconds
#
# Revision: 1
# Processed by: cddbd v1.5PL3 Copyright (c) Steve Scherf et al.
# Submitted via: CDex 1.50
#
DISCID=b10f7b0f
DTITLE=Lars Gullin - Fine Together
DYEAR=2001
DGENRE=Jazz
TTITLE0=Fine together
TTITLE1=Everything happens to me
TTITLE2=Icarus on the moon
TTITLE3=Good day to you
TTITLE4=The flight
TTITLE5=I fall in love too easily
TTITLE6=Get happy
TTITLE7=Lover man
TTITLE8=Stella by starlight
TTITLE9=Happy again
TTITLE10=Night in Tunisia
TTITLE11=My old flame
TTITLE12=The knob
TTITLE13=The song is you
TTITLE14=Aestetic lady
EXTD=YEAR: 2001
EXTT0=
EXTT1=
EXTT2=
EXTT3=
EXTT4=
EXTT5=
EXTT6=
EXTT7=
EXTT8=
EXTT9=
EXTT10=
EXTT11=
EXTT12=
EXTT13=
EXTT14=
PLAYORDER=
